# File created by Blade
# Date/Time:  Mon Sep 22 21:09:19 2014
# Frame Rate: 120.000 fps
#------------------------------------------------------
:FULLY-SPECIFIED
:DEGREES
2145
root -2.407356 34.318186 -12.415009 27.775461 11.978251 -41.484544
Spine -31.971726 -0.744553 34.813894
Head 5.215980 -6.314817 25.822475
LeftShoulder 4.280518 38.198819 35.468228
LeftArm 88.241184 27.551051 -41.943974
LeftForeArm -44.703400 -0.000000 68.140639
LeftHand -15.386669 0.000000 -11.726583
LeftHandThumb1 -26.253704 0.000000 33.147579
RightShoulder -9.236156 -49.456462 -9.726448
RightArm 62.311540 -12.546150 56.268980
RightForeArm 53.699186 -0.000000 84.822489
RightHand -2.006031 -0.000000 13.038675
RightHandThumb1 -24.326973 -0.000000 -32.862282
LeftUpLeg -44.758873 22.662552 28.533083
LeftLeg 23.780829 -0.000000 -0.000000
LeftFoot -5.730788 22.813006 8.209602
LeftToeBase -4.373393 -0.000000 0.000000
RightUpLeg -151.321995 -11.293234 19.509062
RightLeg 90.702265 -0.000000 -0.000000
RightFoot 42.591204 -10.357053 2.659867
RightToeBase 47.378663 -0.000000 -0.000000
2146
root -2.421040 34.300686 -12.475579 28.044062 11.465841 -41.196519
Spine -31.843332 -0.652180 34.423896
Head 5.225392 -6.101185 25.476335
LeftShoulder 4.194077 38.313747 35.449221
LeftArm 88.070572 27.587494 -41.992437
LeftForeArm -44.669966 -0.000000 68.310229
LeftHand -15.558764 -0.000000 -11.273257
LeftHandThumb1 -26.253704 0.000000 33.147579
RightShoulder -8.970722 -49.405117 -9.918612
RightArm 62.401390 -12.650988 56.161220
RightForeArm 53.810162 -0.000000 84.550274
RightHand -2.059373 0.000000 13.092643
RightHandThumb1 -24.326973 -0.000000 -32.862282
LeftUpLeg -44.819778 22.663877 28.431969
LeftLeg 24.133736 -0.000000 -0.000000
LeftFoot -6.046530 22.633931 7.412144
LeftToeBase -4.386008 -0.000000 0.000000
RightUpLeg -151.241247 -10.586810 19.266051
RightLeg 90.682048 -0.000000 -0.000000
RightFoot 42.628064 -10.494254 2.911540
RightToeBase 47.396698 -0.000000 -0.000000
2147
root -2.431880 34.285848 -12.519717 28.206882 11.072267 -41.070153
Spine -31.710892 -0.561368 34.246260
Head 5.253405 -5.966178 25.048715
LeftShoulder 4.124513 38.469553 35.376609
LeftArm 87.976639 27.593629 -42.019179
LeftForeArm -44.551057 0.000000 68.345891
LeftHand -15.593564 -0.000000 -11.517942
LeftHandThumb1 -26.253704 0.000000 33.147579
RightShoulder -8.789679 -49.409982 -10.110352
RightArm 62.514853 -12.748916 56.031589
RightForeArm 53.753768 -0.000000 84.274340
RightHand -2.183668 -0.000000 13.616355
RightHandThumb1 -24.326973 -0.000000 -32.862282
LeftUpLeg -44.794370 22.614221 28.581562
LeftLeg 24.513402 -0.000000 -0.000000
LeftFoot -6.419025 22.353349 6.672245
LeftToeBase -4.454294 -0.000000 0.000000
RightUpLeg -151.082530 -10.021281 19.073801
RightLeg 90.760627 -0.000000 -0.000000
RightFoot 42.614674 -10.554560 3.017981
RightToeBase 47.267382 -0.000000 -0.000000
2148
root -2.440212 34.270246 -12.565670 28.478122 10.665218 -40.916667
Spine -31.682858 -0.384237 34.020249
Head 5.274609 -5.868517 24.647187
LeftShoulder 4.049861 38.623062 35.274100
LeftArm 87.918652 27.607565 -42.000923
LeftForeArm -44.522959 -0.000000 68.412740
LeftHand -15.653652 -0.000000 -11.110029
LeftHandThumb1 -26.253704 0.000000 33.147579
RightShoulder -8.565074 -49.413107 -10.366215
RightArm 62.565829 -12.850548 55.973643
RightForeArm 53.892767 0.000000 84.054261
RightHand -2.269144 -0.000000 13.800136
RightHandThumb1 -24.326973 -0.000000 -32.862282
LeftUpLeg -44.864138 22.666682 28.622857
LeftLeg 24.840116 -0.000000 -0.000000
LeftFoot -6.751150 22.024751 6.096751
LeftToeBase -4.433729 -0.000000 0.000000
RightUpLeg -151.040072 -9.415165 18.953688
RightLeg 90.804469 -0.000000 -0.000000
RightFoot 42.641254 -10.603610 3.057495
RightToeBase 47.305076 -0.000000 -0.000000
2149
root -2.452892 34.255382 -12.611942 28.723251 10.327777 -40.807715
Spine -31.671206 -0.240041 33.869593
Head 5.324594 -5.775460 24.202665
LeftShoulder 3.981753 38.778984 35.159304
LeftArm 87.835961 27.582999 -42.009794
LeftForeArm -44.362475 0.000000 68.391880
LeftHand -15.589172 -0.000000 -11.588886
LeftHandThumb1 -26.253704 0.000000 33.147579
RightShoulder -8.241203 -49.407123 -10.720937
RightArm 62.566745 -12.961948 55.965106
RightForeArm 53.969924 0.000000 83.894345
RightHand -2.051475 -0.000000 13.660468
RightHandThumb1 -24.326973 -0.000000 -32.862282
LeftUpLeg -44.949538 22.752899 28.683752
LeftLeg 25.130202 -0.000000 -0.000000
LeftFoot -7.114334 21.664165 5.537514
LeftToeBase -4.331383 -0.000000 0.000000
RightUpLeg -151.000429 -8.925574 18.823375
RightLeg 90.889015 -0.000000 -0.000000
RightFoot 42.603207 -10.710067 3.251831
RightToeBase 47.139170 -0.000000 -0.000000
2150
root -2.467286 34.242842 -12.656406 28.940984 9.993018 -40.731388
Spine -31.641088 -0.035043 33.690108
Head 5.338993 -5.763689 23.835019
LeftShoulder 3.949385 38.904657 35.041919
LeftArm 87.817126 27.555548 -41.967030
LeftForeArm -44.438878 0.000000 68.416398
LeftHand -15.744193 -0.000000 -11.167439
LeftHandThumb1 -26.253704 0.000000 33.147579
RightShoulder -8.076847 -49.436102 -10.915889
RightArm 62.585420 -13.024779 55.925043
RightForeArm 53.863358 -0.000000 83.740283
RightHand -2.117868 -0.000000 13.903203
RightHandThumb1 -24.326973 -0.000000 -32.862282
LeftUpLeg -44.993455 22.915730 28.700921
LeftLeg 25.311855 -0.000000 -0.000000
LeftFoot -7.388743 21.309908 5.042109
LeftToeBase -4.392025 -0.000000 0.000000
RightUpLeg -150.934841 -8.465310 18.623806
RightLeg 90.978090 -0.000000 -0.000000
RightFoot 42.576002 -10.819882 3.444938
RightToeBase 47.038310 -0.000000 -0.000000
2151
root -2.481429 34.226763 -12.692713 29.083242 9.748044 -40.567525
Spine -31.619625 0.068559 33.447383
Head 5.326131 -5.799392 23.465482
LeftShoulder 3.882428 39.009763 34.895575
LeftArm 87.858667 27.545350 -41.870082
LeftForeArm -44.295727 0.000000 68.339832
LeftHand -15.657304 -0.000000 -11.384502
LeftHandThumb1 -26.253704 0.000000 33.147579
RightShoulder -8.010406 -49.536096 -11.059151
RightArm 62.693213 -13.079055 55.851384
RightForeArm 53.919822 0.000000 83.576672
RightHand -2.016892 -0.000000 13.825948
RightHandThumb1 -24.326973 -0.000000 -32.862282
LeftUpLeg -45.015192 23.015996 28.582478
LeftLeg 25.382587 -0.000000 -0.000000
LeftFoot -7.722361 21.085632 4.581625
LeftToeBase -4.138088 -0.000000 0.000000
RightUpLeg -150.876105 -8.176533 18.401010
RightLeg 91.110266 -0.000000 -0.000000
RightFoot 42.555858 -10.958426 3.639676
RightToeBase 47.127594 -0.000000 -0.000000
2152
root -2.495076 34.215323 -12.730610 29.335316 9.529796 -40.411033
Spine -31.726097 0.248350 33.202857
Head 5.338168 -5.940046 23.118688
LeftShoulder 3.823075 39.056491 34.737395
LeftArm 87.899718 27.577287 -41.747085
LeftForeArm -44.499993 -0.000000 68.346602
LeftHand -15.962327 -0.000000 -10.993297
LeftHandThumb1 -26.253704 0.000000 33.147579
RightShoulder -7.931960 -49.664838 -11.199527
RightArm 62.770325 -13.093284 55.825605
RightForeArm 53.973370 -0.000000 83.381740
RightHand -1.845815 -0.000000 13.855733
RightHandThumb1 -24.326973 -0.000000 -32.862282
LeftUpLeg -45.190990 23.251621 28.312193
LeftLeg 25.387433 -0.000000 -0.000000
LeftFoot -7.921138 20.879234 4.274410
LeftToeBase -3.966253 -0.000000 0.000000
RightUpLeg -150.930464 -7.875452 18.244193
RightLeg 91.234813 -0.000000 -0.000000
RightFoot 42.547819 -10.961153 3.680024
RightToeBase 47.129239 -0.000000 -0.000000
2153
root -2.513381 34.202661 -12.768891 29.499002 9.359827 -40.223158
Spine -31.774550 0.340250 32.920799
Head 5.321707 -6.099016 22.820522
LeftShoulder 3.762580 39.116661 34.615507
LeftArm 87.958108 27.585752 -41.708365
LeftForeArm -44.288653 -0.000000 68.236037
LeftHand -15.926283 -0.000000 -11.196507
LeftHandThumb1 -26.253704 0.000000 33.147579
RightShoulder -7.883457 -49.739557 -11.301376
RightArm 62.828647 -13.109524 55.815318
RightForeArm 54.013638 -0.000000 83.209022
RightHand -1.923160 -0.000000 14.114714
RightHandThumb1 -24.326973 -0.000000 -32.862282
LeftUpLeg -45.329908 23.407587 28.017559
LeftLeg 25.371729 -0.000000 -0.000000
LeftFoot -8.068512 20.777420 4.063983
LeftToeBase -3.668826 -0.000000 0.000000
RightUpLeg -150.952152 -7.638244 18.120905
RightLeg 91.364363 -0.000000 -0.000000
RightFoot 42.564234 -10.978646 3.668925
RightToeBase 47.194939 -0.000000 -0.000000
2154
root -2.536630 34.191850 -12.803988 29.534037 9.292715 -40.078352
Spine -31.747308 0.323598 32.716119
Head 5.297387 -6.241896 22.551509
LeftShoulder 3.690040 39.221879 34.459131
LeftArm 88.052795 27.554393 -41.614693
LeftForeArm -44.394376 -0.000000 68.249253
LeftHand -16.138776 0.000000 -10.780236
LeftHandThumb1 -26.253704 0.000000 33.147579
RightShoulder -7.855007 -49.792503 -11.372507
RightArm 62.879298 -13.109136 55.798980
RightForeArm 54.067260 -0.000000 83.055430
RightHand -1.963592 -0.000000 14.147550
RightHandThumb1 -24.326973 -0.000000 -32.862282
LeftUpLeg -45.416034 23.471951 27.812931
LeftLeg 25.347616 -0.000000 -0.000000
LeftFoot -8.082792 20.768750 4.084326
LeftToeBase -3.513950 -0.000000 0.000000
RightUpLeg -150.897322 -7.521580 18.034932
RightLeg 91.535394 -0.000000 -0.000000
RightFoot 42.543778 -11.020999 3.684578
RightToeBase 47.065359 -0.000000 -0.000000
2155
root -2.560841 34.182374 -12.838200 29.561486 9.227786 -39.916447
Spine -31.719908 0.311946 32.475436
Head 5.263681 -6.426078 22.317108
LeftShoulder 3.654231 39.300874 34.347997
LeftArm 88.082327 27.549509 -41.615907
LeftForeArm -44.365194 -0.000000 68.264233
LeftHand -16.308227 -0.000000 -10.587032
LeftHandThumb1 -26.253704 0.000000 33.147579
RightShoulder -7.838826 -49.764619 -11.437602
RightArm 62.864305 -13.155136 55.823652
RightForeArm 54.059345 -0.000000 82.878647
RightHand -2.011547 -0.000000 14.434783
RightHandThumb1 -24.326973 -0.000000 -32.862282
LeftUpLeg -45.478738 23.500912 27.595322
LeftLeg 25.285204 -0.000000 -0.000000
LeftFoot -8.090842 20.837153 4.137843
LeftToeBase -3.227196 -0.000000 0.000000
RightUpLeg -150.860654 -7.385820 17.989854
RightLeg 91.687207 -0.000000 -0.000000
RightFoot 42.580982 -10.963228 3.589863
RightToeBase 47.083440 -0.000000 -0.000000
2156
root -2.586668 34.176150 -12.867547 29.629870 9.175923 -39.778040
Spine -31.743491 0.339385 32.236826
Head 5.191653 -6.619228 22.130736
LeftShoulder 3.594234 39.336233 34.272442
LeftArm 88.090716 27.625983 -41.696877
LeftForeArm -43.971070 -0.000000 68.216597
LeftHand -16.236028 -0.000000 -10.973982
LeftHandThumb1 -26.253704 0.000000 33.147579
RightShoulder -7.928643 -49.814284 -11.402024
RightArm 62.931812 -13.163210 55.809349
RightForeArm 54.006886 -0.000000 82.683920
RightHand -2.027470 -0.000000 14.609283
RightHandThumb1 -24.326973 -0.000000 -32.862282
LeftUpLeg -45.563506 23.552857 27.390561
LeftLeg 25.197433 -0.000000 -0.000000
LeftFoot -8.100814 20.923033 4.187152
LeftToeBase -2.965766 -0.000000 0.000000
RightUpLeg -150.881418 -7.232675 18.000363
RightLeg 91.853623 -0.000000 -0.000000
RightFoot 42.532905 -11.042466 3.660710
RightToeBase 47.273563 -0.000000 -0.000000
2157
root -2.613103 34.174407 -12.891612 29.617146 9.230166 -39.720433
Spine -31.759385 0.291929 32.147881
Head 5.209149 -6.830782 21.914943
LeftShoulder 3.581327 39.408533 34.177108
LeftArm 88.116040 27.640891 -41.741158
LeftForeArm -43.965517 0.000000 68.239209
LeftHand -16.511892 0.000000 -10.684025
LeftHandThumb1 -26.253704 0.000000 33.147579
RightShoulder -7.915327 -49.830934 -11.462792
RightArm 62.914182 -13.172011 55.856831
RightForeArm 54.046144 -0.000000 82.502907
RightHand -2.017487 -0.000000 14.870822
RightHandThumb1 -24.326973 -0.000000 -32.862282
LeftUpLeg -45.608329 23.565695 27.307362
LeftLeg 25.093374 -0.000000 -0.000000
LeftFoot -8.129969 20.957515 4.216111
LeftToeBase -2.558792 -0.000000 0.000000
RightUpLeg -150.842954 -7.172266 18.006802
RightLeg 92.042505 -0.000000 -0.000000
RightFoot 42.434891 -11.251931 3.880548
RightToeBase 47.254189 -0.000000 -0.000000
